<svg width="42" height="51" viewBox="0 0 42 51" fill="none" xmlns="http://www.w3.org/2000/svg">
<path d="M9.78299 33.2831L11.6611 31.235L9.20511 28.6236H7.27883L7.08928 28.4678C6.86879 28.2867 6.71131 28.0326 6.64168 27.7457L6.63374 27.713C6.58315 27.5046 6.5858 27.2855 6.64142 27.0785C6.71119 26.8189 6.86069 26.5915 7.0661 26.4327L7.27883 26.2681H10.2646L10.409 22.3254L6.78215 18.4214C6.60552 18.2312 6.49912 17.9799 6.4824 17.7132C6.46793 17.4825 6.5214 17.2527 6.63536 17.0558L6.68192 16.9754C6.78831 16.7915 6.94557 16.6472 7.13215 16.5622C7.37958 16.4494 7.65965 16.4494 7.90707 16.5622L8.00864 16.6085C8.13129 16.6644 8.24465 16.7409 8.34438 16.8352L9.06064 17.5121L10.698 15.1567L10.131 11.2612C10.093 11.0003 10.1483 10.7337 10.2861 10.514C10.3975 10.3362 10.557 10.1986 10.7436 10.1193L10.8526 10.0729C11.0637 9.98311 11.2979 9.97579 11.5136 10.0523C11.6734 10.1089 11.8163 10.2091 11.9282 10.3429L11.9457 10.3639C12.0746 10.518 12.1612 10.7067 12.1961 10.9096L12.6724 13.6718L17.2473 18.2802L17.2955 13.1085L16.2826 8.31105C16.2518 8.16515 16.2455 8.0146 16.2641 7.86638L16.2771 7.76275C16.3123 7.48181 16.4554 7.22892 16.6723 7.06419C16.8858 6.90202 17.1523 6.83942 17.4102 6.89083L17.4375 6.89628C17.6578 6.9402 17.8586 7.05939 18.0094 7.23573L18.0589 7.29366C18.1902 7.44722 18.2858 7.63138 18.3381 7.83135L19.4625 12.1356V10.5995L19.5574 9.59081C19.5895 9.24972 19.7316 8.93093 19.9595 8.68854C20.1385 8.49823 20.3628 8.36322 20.6083 8.29794L21.0036 8.19288V2.66161C20.9977 1.82972 20.5655 1.05505 19.9145 0.593581C19.6481 0.404739 19.3483 0.275544 19.0334 0.213869L18.253 0.0610038C17.8741 -0.0132016 17.4863 -0.0197582 17.1054 0.041603L16.6826 0.109727C16.2914 0.172739 15.9133 0.306451 15.5646 0.505077L15.2553 0.681301C14.9162 0.874429 14.6098 1.1262 14.3484 1.42629L13.9198 1.91852C13.6677 2.20799 13.461 2.5386 13.3074 2.89774L12.8169 4.0453L11.1874 4.00994C10.7059 3.99949 10.2276 4.09581 9.78304 4.29276L9.04644 4.6191C8.45736 4.88009 7.94745 5.30888 7.57286 5.85825L7.31045 6.2431C6.94308 6.78189 6.71971 7.41637 6.66405 8.07923L6.50832 9.93384L5.05105 10.3449C4.45996 10.5117 3.92086 10.8417 3.48844 11.3015L2.84489 11.9857C2.49802 12.3546 2.2287 12.7975 2.05473 13.2851L2.01432 13.3984C1.8653 13.8161 1.78894 14.2592 1.78894 14.7059V14.8836C1.78894 15.3016 1.85578 15.7165 1.98661 16.1107L2.65576 18.1266L1.98005 18.6295C1.78892 18.7718 1.61178 18.9342 1.45132 19.1143L1.16045 19.4407C0.938436 19.6899 0.750235 19.9709 0.601302 20.2754L0.453288 20.5781C0.285315 20.9215 0.169266 21.291 0.109411 21.6728L0.0471766 22.0699C-0.0112795 22.4428 -0.0154371 22.8231 0.0348479 23.1974L0.116183 23.8027C0.171499 24.2145 0.291934 24.6133 0.472389 24.9823L0.601301 25.2459C0.750235 25.5504 0.938436 25.8313 1.16045 26.0805L1.35814 26.3024C1.58004 26.5514 1.83355 26.7663 2.11132 26.9409L2.75207 27.3434L2.40859 28.4797C2.34874 28.6777 2.30476 28.8807 2.2771 29.0865L2.19608 29.6895C2.14962 30.0354 2.14962 30.3865 2.19608 30.7323L2.22506 30.9479C2.2869 31.4083 2.43008 31.852 2.64705 32.2557L2.68979 32.3352C2.82713 32.5908 2.99277 32.8279 3.18315 33.0416L3.42204 33.3097C3.64844 33.5638 3.90772 33.7824 4.19207 33.9587L4.57378 34.1955C4.80326 34.3378 5.04736 34.4516 5.30128 34.5347L5.78908 34.6943C6.043 34.7773 6.30505 34.8291 6.57009 34.8485L7.56777 34.9217V35.5737C7.56777 35.988 7.64795 36.3979 7.80331 36.7778C7.96544 37.1743 8.20575 37.5292 8.50798 37.8184L9.11982 38.4039C9.36801 38.6414 9.64715 38.8396 9.94861 38.9922L10.0365 39.0367C10.3473 39.1941 10.6785 39.3014 11.0191 39.355L11.1889 39.3818C11.5966 39.446 12.0119 39.4302 12.4142 39.3351L12.5566 39.3015C12.9204 39.2155 13.2687 39.0678 13.5883 38.8639L13.6542 38.8218C13.9294 38.6463 14.1803 38.431 14.3998 38.182L14.5186 38.0473C14.6994 37.8422 14.8514 37.6102 14.9697 37.3587C15.1379 37.0009 15.2349 36.6101 15.2547 36.2107L15.2578 36.149C15.2678 35.9458 15.2586 35.742 15.2302 35.5408L15.2006 35.3307C15.1532 34.995 15.0281 34.6771 14.8366 34.4056L14.7006 34.2128C14.505 33.9354 14.2785 33.6842 14.0261 33.4646L13.3466 32.8735L11.2759 34.8193L11.0527 34.8558C10.7912 34.8986 10.5238 34.8496 10.2909 34.7162L10.2188 34.6749C10.0907 34.6016 9.98159 34.496 9.90092 34.3673C9.79318 34.1955 9.74139 33.9908 9.75351 33.7847L9.78299 33.2831Z" fill="#43BA7D"/>
<path d="M32.217 33.2831L30.3389 31.235L32.7949 28.6236H34.7212L34.9107 28.4678C35.1312 28.2867 35.2887 28.0326 35.3583 27.7457L35.3663 27.713C35.4169 27.5046 35.4142 27.2855 35.3586 27.0785C35.2888 26.8189 35.1393 26.5915 34.9339 26.4327L34.7212 26.2681H31.7354L31.591 22.3254L35.2178 18.4214C35.3945 18.2312 35.5009 17.9799 35.5176 17.7132C35.5321 17.4825 35.4786 17.2527 35.3646 17.0558L35.3181 16.9754C35.2117 16.7915 35.0544 16.6472 34.8678 16.5622C34.6204 16.4494 34.3403 16.4494 34.0929 16.5622L33.9914 16.6085C33.8687 16.6644 33.7553 16.7409 33.6556 16.8352L32.9394 17.5121L31.302 15.1567L31.869 11.2612C31.907 11.0003 31.8517 10.7337 31.7139 10.514C31.6025 10.3362 31.443 10.1986 31.2564 10.1193L31.1474 10.0729C30.9363 9.98311 30.7021 9.97579 30.4864 10.0523C30.3266 10.1089 30.1837 10.2091 30.0718 10.3429L30.0543 10.3639C29.9254 10.518 29.8388 10.7067 29.8039 10.9096L29.3276 13.6718L24.7527 18.2802L24.7045 13.1085L25.7174 8.31105C25.7482 8.16515 25.7545 8.0146 25.7359 7.86638L25.7229 7.76275C25.6876 7.48181 25.5446 7.22892 25.3277 7.06419C25.1142 6.90202 24.8477 6.83942 24.5898 6.89083L24.5625 6.89628C24.3422 6.9402 24.1414 7.05939 23.9906 7.23573L23.9411 7.29366C23.8098 7.44722 23.7142 7.63138 23.6619 7.83135L22.5375 12.1356V10.5995L22.4426 9.59081C22.4105 9.24972 22.2684 8.93093 22.0405 8.68854C21.8615 8.49823 21.6372 8.36322 21.3917 8.29794L20.9964 8.19288L21.0036 2.66161C21.0094 1.82972 21.4345 1.05505 22.0855 0.593581C22.3519 0.404739 22.6517 0.275544 22.9666 0.213869L23.747 0.0610038C24.1259 -0.0132016 24.5137 -0.0197582 24.8946 0.041603L25.3174 0.109727C25.7086 0.172739 26.0867 0.306451 26.4354 0.505077L26.7447 0.681301C27.0838 0.874429 27.3902 1.1262 27.6516 1.42629L28.0802 1.91852C28.3323 2.20799 28.539 2.5386 28.6925 2.89774L29.1831 4.0453L30.8126 4.00994C31.2941 3.99949 31.7724 4.09581 32.217 4.29276L32.9536 4.6191C33.5426 4.88009 34.0526 5.30888 34.4271 5.85825L34.6895 6.2431C35.0569 6.78189 35.2803 7.41637 35.3359 8.07923L35.4917 9.93384L36.9489 10.3449C37.54 10.5117 38.0791 10.8417 38.5116 11.3015L39.1551 11.9857C39.502 12.3546 39.7713 12.7975 39.9453 13.2851L39.9857 13.3984C40.1347 13.8161 40.2111 14.2592 40.2111 14.7059V14.8836C40.2111 15.3016 40.1442 15.7165 40.0134 16.1107L39.3442 18.1266L40.0199 18.6295C40.2111 18.7718 40.3882 18.9342 40.5487 19.1143L40.8395 19.4407C41.0616 19.6899 41.2498 19.9709 41.3987 20.2754L41.5467 20.5781C41.7147 20.9215 41.8307 21.291 41.8906 21.6728L41.9528 22.0699C42.0113 22.4428 42.0154 22.8231 41.9651 23.1974L41.8838 23.8027C41.8285 24.2145 41.7081 24.6133 41.5276 24.9823L41.3987 25.2459C41.2498 25.5504 41.0616 25.8313 40.8395 26.0805L40.6419 26.3024C40.42 26.5514 40.1665 26.7663 39.8887 26.9409L39.2479 27.3434L39.5914 28.4797C39.6513 28.6777 39.6952 28.8807 39.7229 29.0865L39.8039 29.6895C39.8504 30.0354 39.8504 30.3865 39.8039 30.7323L39.7749 30.9479C39.7131 31.4083 39.5699 31.852 39.353 32.2557L39.3102 32.3352C39.1729 32.5908 39.0072 32.8279 38.8168 33.0416L38.578 33.3097C38.3516 33.5638 38.0923 33.7824 37.8079 33.9587L37.4262 34.1955C37.1967 34.3378 36.9526 34.4516 36.6987 34.5347L36.2109 34.6943C35.957 34.7773 35.6949 34.8291 35.4299 34.8485L34.4322 34.9217V35.5737C34.4322 35.988 34.3521 36.3979 34.1967 36.7778C34.0346 37.1743 33.7943 37.5292 33.492 37.8184L32.8802 38.4039C32.632 38.6414 32.3528 38.8396 32.0514 38.9922L31.9635 39.0367C31.6527 39.1941 31.3215 39.3014 30.9809 39.355L30.8111 39.3818C30.4034 39.446 29.9881 39.4302 29.5858 39.3351L29.4434 39.3015C29.0796 39.2155 28.7313 39.0678 28.4117 38.8639L28.3458 38.8218C28.0706 38.6463 27.8197 38.431 27.6002 38.182L27.4814 38.0473C27.3006 37.8422 27.1486 37.6102 27.0303 37.3587C26.8621 37.0009 26.7651 36.6101 26.7453 36.2107L26.7422 36.149C26.7322 35.9458 26.7414 35.742 26.7698 35.5408L26.7994 35.3307C26.8468 34.995 26.9719 34.6771 27.1634 34.4056L27.2994 34.2128C27.495 33.9354 27.7215 33.6842 27.9739 33.4646L28.6534 32.8735L30.7241 34.8193L30.9473 34.8558C31.2087 34.8986 31.4762 34.8496 31.7091 34.7162L31.7812 34.6749C31.9093 34.6016 32.0184 34.496 32.0991 34.3673C32.2068 34.1955 32.2586 33.9908 32.2465 33.7847L32.217 33.2831Z" fill="#43BA7D"/>
<path d="M23.3561 35.2289L23.0368 31.0814L31.5428 22.3254C31.9794 22.9362 32.3074 23.7705 32.369 24.57C32.4027 25.0069 32.2926 25.4381 32.1688 25.8585L23.3561 35.2289Z" fill="#276F5B"/>
<path d="M18.6367 35.2289L18.8953 31.0814L10.3537 22.3254C9.85214 23.0271 9.4939 24.0239 9.51823 24.9239C9.52371 25.1264 9.57037 25.3241 9.62728 25.5174L9.72768 25.8585L18.6367 35.2289Z" fill="#276F5B"/>
<path d="M23.5024 51H20.9179H18.4358C17.9305 51 17.5323 50.5423 17.5716 50.0067L18.6367 35.2289L18.8953 31.0814L19.0701 23.8103L19.487 9.77453C19.5061 8.89514 20.182 8.19284 21.0093 8.19284C21.8405 8.19284 22.5181 8.90206 22.5318 9.78572L22.7519 23.8103L22.9104 27.8555L23.0368 31.0814L23.3739 35.2289L24.367 50.0126C24.3672 50.0147 24.3673 50.0168 24.3674 50.0189C24.3998 50.5497 24.0035 51 23.5024 51Z" fill="#276F5B"/>
<path d="M30.614 15.6225L22.7519 23.8103L22.9104 27.8555L32.9394 17.5121C33.0483 17.3383 33.0037 17.1121 32.8584 16.9674C32.5529 16.6631 32.3191 16.2847 32.1681 15.8695C31.9873 15.3724 31.5538 14.9931 31.0971 15.2602C30.9026 15.3739 30.7278 15.504 30.614 15.6225Z" fill="#276F5B"/>
<path d="M11.3181 15.6225L19.0701 23.8103L19.0217 27.8555L8.81268 17.3585C9.14834 17.1057 9.48853 16.5384 9.75482 15.9211C10.1643 14.9718 10.602 14.8767 11.3181 15.6225Z" fill="#276F5B"/>
</svg>
